<svg width="32" height="32" viewBox="0 0 32 32" fill="none" xmlns="http://www.w3.org/2000/svg">
<rect x="1.32111" y="1.2107" width="29.5787" height="29.5787" rx="2.65449" stroke="#3C3C3B" stroke-width="0.758427"/>
<g clip-path="url(#clip0_1_7388)">
<path d="M16.1102 9.55352C15.2204 9.55352 14.3852 9.7214 13.6046 10.0572C12.8155 10.3929 12.1293 10.8525 11.5459 11.4359C10.9626 12.0193 10.503 12.7055 10.1672 13.4945C9.83146 14.2752 9.66357 15.1104 9.66357 16.0001C9.66357 16.8899 9.83146 17.7251 10.1672 18.5058C10.503 19.2948 10.9626 19.981 11.5459 20.5644C12.1293 21.1478 12.8155 21.6074 13.6046 21.9431C14.3852 22.2789 15.2204 22.4468 16.1102 22.4468C17 22.4468 17.8352 22.2789 18.6158 21.9431C19.4049 21.6074 20.0911 21.1478 20.6745 20.5644C21.2579 19.981 21.7174 19.2948 22.0532 18.5058C22.389 17.7251 22.5568 16.8899 22.5568 16.0001C22.5568 15.1104 22.389 14.2752 22.0532 13.4945C21.7174 12.7055 21.2579 12.0193 20.6745 11.4359C20.0911 10.8525 19.4049 10.3929 18.6158 10.0572C17.8352 9.7214 17 9.55352 16.1102 9.55352ZM19.2832 13.973L18.2255 18.9591C18.1835 19.1353 18.1122 19.2444 18.0115 19.2864C17.9107 19.3284 17.7848 19.3116 17.6337 19.2361L16.0221 18.0399L15.254 18.7954C15.2036 18.8373 15.1575 18.8751 15.1155 18.9087C15.0735 18.9423 15.0106 18.9591 14.9266 18.9591C14.8259 18.9591 14.7693 18.936 14.7567 18.8898C14.7441 18.8436 14.721 18.7744 14.6874 18.682L14.1334 16.8689L12.5469 16.3779C12.3707 16.3275 12.2846 16.2499 12.2888 16.1449C12.293 16.04 12.4042 15.9456 12.6225 15.8616L18.8299 13.4693C18.9726 13.4022 19.0964 13.4148 19.2013 13.5071C19.3062 13.5995 19.3335 13.7547 19.2832 13.973Z" fill="#3C3C3B"/>
</g>
<defs>
<clipPath id="clip0_1_7388">
<rect width="12.8933" height="12.8933" fill="white" transform="matrix(1 0 0 -1 9.66357 22.4468)"/>
</clipPath>
</defs>
</svg>
