<svg width="31" height="32" viewBox="0 0 31 32" fill="none" xmlns="http://www.w3.org/2000/svg">
<rect x="0.646792" y="1.2107" width="29.5787" height="29.5787" rx="2.65449" stroke="#3C3C3B" stroke-width="0.758427"/>
<g clip-path="url(#clip0_1_7382)">
<path d="M16.2799 17.6622C16.2799 17.3012 16.3995 17.148 16.6388 17.2026C16.878 17.2571 17.1067 17.381 17.325 17.574C17.5348 17.7755 17.7489 18.0063 17.9671 18.2665C18.1854 18.5267 18.3616 18.7198 18.4959 18.8457C18.6218 18.9716 18.7352 19.0661 18.8359 19.129C18.9366 19.192 19.0835 19.2234 19.2766 19.2234C19.4445 19.2234 19.6543 19.2234 19.9061 19.2234C20.158 19.2234 20.3846 19.2234 20.5861 19.2234C20.8463 19.2234 21.0079 19.1605 21.0708 19.0346C21.1338 18.9087 20.9722 18.5939 20.5861 18.0903C20.2335 17.637 19.8726 17.2362 19.5032 16.8878C19.1339 16.5395 18.903 16.3275 18.8107 16.252C18.7939 16.2352 18.7855 16.2205 18.7855 16.2079C18.7855 16.1953 18.7897 16.1848 18.7981 16.1764C19.0499 15.8826 19.3018 15.5406 19.5536 15.1502C19.8054 14.7599 20.0698 14.3213 20.3468 13.8345C20.607 13.3644 20.7015 13.0706 20.6301 12.9531C20.5588 12.8356 20.4643 12.7768 20.3468 12.7768C20.2041 12.7768 20.0174 12.7768 19.7865 12.7768C19.5557 12.7768 19.3857 12.7768 19.2766 12.7768C19.0164 12.7768 18.8506 12.8251 18.7792 12.9216C18.7079 13.0181 18.6554 13.0958 18.6218 13.1546C18.2357 13.8513 17.9209 14.3654 17.6775 14.697C17.4341 15.0285 17.1949 15.2908 16.9598 15.4839C16.8591 15.5678 16.7563 15.6392 16.6513 15.6979C16.5464 15.7567 16.431 15.8071 16.3051 15.849C16.2967 15.849 16.2904 15.8469 16.2862 15.8427C16.282 15.8385 16.2799 15.8323 16.2799 15.8239C16.2799 15.7147 16.2799 15.3937 16.2799 14.8606C16.2799 14.3276 16.2799 13.8429 16.2799 13.4064C16.2799 13.0958 16.2358 12.9132 16.1477 12.8587C16.0596 12.8041 15.8854 12.7768 15.6252 12.7768C15.4237 12.7768 15.2034 12.7768 14.9641 12.7768C14.7249 12.7768 14.5088 12.7768 14.3157 12.7768C14.0555 12.7768 13.8981 12.8335 13.8435 12.9468C13.789 13.0601 13.8163 13.1713 13.9254 13.2805C14.0345 13.3896 14.1058 13.5071 14.1394 13.633C14.173 13.7589 14.1898 13.8932 14.1898 14.0359C14.1898 14.3801 14.1898 14.8481 14.1898 15.4398C14.1898 16.0316 14.1898 16.3989 14.1898 16.5416C14.1898 16.5499 14.1856 16.5562 14.1772 16.5604C14.1688 16.5646 14.1604 16.5667 14.152 16.5667C14.0009 16.4576 13.8561 16.3338 13.7176 16.1953C13.5791 16.0568 13.4469 15.9078 13.321 15.7483C13.0272 15.379 12.7649 14.9614 12.5341 14.4955C12.3032 14.0296 12.0913 13.5491 11.8982 13.0538C11.873 12.9951 11.8185 12.9342 11.7345 12.8713C11.6506 12.8083 11.5121 12.7768 11.319 12.7768C11.1176 12.7768 10.9056 12.7768 10.6832 12.7768C10.4607 12.7768 10.2782 12.7768 10.1355 12.7768C10.0096 12.7768 9.90672 12.8398 9.82698 12.9657C9.74724 13.0916 9.78711 13.356 9.9466 13.7589C10.1481 14.2794 10.3852 14.8229 10.658 15.3895C10.9308 15.9561 11.2645 16.487 11.659 16.9822C12.0535 17.4775 12.511 17.9266 13.0314 18.3295C13.5518 18.7324 14.1982 18.9884 14.9704 19.0975C15.1887 19.1311 15.43 19.1416 15.6944 19.129C15.9588 19.1164 16.1372 19.1059 16.2295 19.0975C16.2463 19.0975 16.2589 19.0933 16.2673 19.0849C16.2757 19.0766 16.2799 19.064 16.2799 19.0472V17.6622Z" fill="#3C3C3B"/>
</g>
<defs>
<clipPath id="clip0_1_7382">
<rect width="12.8933" height="12.8933" fill="white" transform="matrix(1 0 0 -1 8.98926 22.4468)"/>
</clipPath>
</defs>
</svg>
