<svg width="31" height="32" viewBox="0 0 31 32" fill="none" xmlns="http://www.w3.org/2000/svg">
<rect x="0.983706" y="1.2107" width="29.5787" height="29.5787" rx="2.65449" stroke="#3C3C3B" stroke-width="0.758427"/>
<path d="M13.0473 9.42029H18.4989C20.5756 9.42029 22.263 11.1077 22.263 13.1844V18.636C22.263 19.6343 21.8664 20.5917 21.1605 21.2976C20.4546 22.0035 19.4972 22.4001 18.4989 22.4001H13.0473C10.9706 22.4001 9.2832 20.7127 9.2832 18.636V13.1844C9.2832 12.1861 9.67978 11.2287 10.3857 10.5228C11.0916 9.81687 12.049 9.42029 13.0473 9.42029ZM12.9175 10.7183C12.2979 10.7183 11.7036 10.9644 11.2655 11.4026C10.8273 11.8407 10.5812 12.435 10.5812 13.0546V18.7657C10.5812 20.0572 11.6261 21.1021 12.9175 21.1021H18.6287C19.2483 21.1021 19.8426 20.856 20.2807 20.4178C20.7189 19.9797 20.965 19.3854 20.965 18.7657V13.0546C20.965 11.7631 19.9202 10.7183 18.6287 10.7183H12.9175ZM19.1803 11.6918C19.3955 11.6918 19.6018 11.7772 19.7539 11.9294C19.9061 12.0815 19.9915 12.2878 19.9915 12.503C19.9915 12.7181 19.9061 12.9245 19.7539 13.0766C19.6018 13.2288 19.3955 13.3142 19.1803 13.3142C18.9652 13.3142 18.7588 13.2288 18.6067 13.0766C18.4545 12.9245 18.3691 12.7181 18.3691 12.503C18.3691 12.2878 18.4545 12.0815 18.6067 11.9294C18.7588 11.7772 18.9652 11.6918 19.1803 11.6918ZM15.7731 12.6652C16.6337 12.6652 17.4591 13.0071 18.0676 13.6157C18.6762 14.2242 19.0181 15.0496 19.0181 15.9102C19.0181 16.7708 18.6762 17.5962 18.0676 18.2047C17.4591 18.8133 16.6337 19.1551 15.7731 19.1551C14.9125 19.1551 14.0871 18.8133 13.4786 18.2047C12.87 17.5962 12.5282 16.7708 12.5282 15.9102C12.5282 15.0496 12.87 14.2242 13.4786 13.6157C14.0871 13.0071 14.9125 12.6652 15.7731 12.6652ZM15.7731 13.9632C15.2567 13.9632 14.7615 14.1683 14.3964 14.5335C14.0313 14.8986 13.8261 15.3938 13.8261 15.9102C13.8261 16.4266 14.0313 16.9218 14.3964 17.2869C14.7615 17.652 15.2567 17.8572 15.7731 17.8572C16.2895 17.8572 16.7847 17.652 17.1498 17.2869C17.5149 16.9218 17.7201 16.4266 17.7201 15.9102C17.7201 15.3938 17.5149 14.8986 17.1498 14.5335C16.7847 14.1683 16.2895 13.9632 15.7731 13.9632Z" fill="#3C3C3B"/>
</svg>
