<svg width="20" height="20" viewBox="0 0 20 20" fill="none" xmlns="http://www.w3.org/2000/svg">
<g clip-path="url(#clip0_715_678)">
<g filter="url(#filter0_d_715_678)">
<path d="M4.16667 17.5C3.70833 17.5 3.3125 17.3403 2.97917 17.0208C2.65972 16.6875 2.5 16.2917 2.5 15.8333V4.16667C2.5 3.70833 2.65972 3.31945 2.97917 3C3.3125 2.66667 3.70833 2.5 4.16667 2.5H15.8333C16.2917 2.5 16.6806 2.66667 17 3C17.3333 3.31945 17.5 3.70833 17.5 4.16667V15.8333C17.5 16.2917 17.3333 16.6875 17 17.0208C16.6806 17.3403 16.2917 17.5 15.8333 17.5H4.16667ZM4.16667 15.8333H15.8333V4.16667H4.16667V15.8333ZM5 14.1667H15L11.875 10L9.375 13.3333L7.5 10.8333L5 14.1667ZM4.16667 15.8333V4.16667V15.8333Z" fill="#1D1B20"/>
<path d="M4.16667 17.5C3.70833 17.5 3.3125 17.3403 2.97917 17.0208C2.65972 16.6875 2.5 16.2917 2.5 15.8333V4.16667C2.5 3.70833 2.65972 3.31945 2.97917 3C3.3125 2.66667 3.70833 2.5 4.16667 2.5H15.8333C16.2917 2.5 16.6806 2.66667 17 3C17.3333 3.31945 17.5 3.70833 17.5 4.16667V15.8333C17.5 16.2917 17.3333 16.6875 17 17.0208C16.6806 17.3403 16.2917 17.5 15.8333 17.5H4.16667ZM4.16667 15.8333H15.8333V4.16667H4.16667V15.8333ZM5 14.1667H15L11.875 10L9.375 13.3333L7.5 10.8333L5 14.1667ZM4.16667 15.8333V4.16667V15.8333Z" stroke="black" stroke-width="0.2"/>
</g>
</g>
<rect x="0.1" y="0.1" width="19.8" height="19.8" stroke="black" stroke-width="0.2"/>
<defs>
<filter id="filter0_d_715_678" x="-1.6001" y="2.3999" width="23.2002" height="23.2002" filterUnits="userSpaceOnUse" color-interpolation-filters="sRGB">
<feFlood flood-opacity="0" result="BackgroundImageFix"/>
<feColorMatrix in="SourceAlpha" type="matrix" values="0 0 0 0 0 0 0 0 0 0 0 0 0 0 0 0 0 0 127 0" result="hardAlpha"/>
<feOffset dy="4"/>
<feGaussianBlur stdDeviation="2"/>
<feComposite in2="hardAlpha" operator="out"/>
<feColorMatrix type="matrix" values="0 0 0 0 0 0 0 0 0 0 0 0 0 0 0 0 0 0 0.25 0"/>
<feBlend mode="normal" in2="BackgroundImageFix" result="effect1_dropShadow_715_678"/>
<feBlend mode="normal" in="SourceGraphic" in2="effect1_dropShadow_715_678" result="shape"/>
</filter>
<clipPath id="clip0_715_678">
<rect width="20" height="20" fill="white"/>
</clipPath>
</defs>
</svg>
