<svg width="30" height="31" viewBox="0 0 30 31" fill="none" xmlns="http://www.w3.org/2000/svg">
<path fill-rule="evenodd" clip-rule="evenodd" d="M24.7211 6.03746C25.03 5.90745 25.3681 5.86261 25.7002 5.9076C26.0323 5.9526 26.3463 6.08579 26.6094 6.29331C26.8726 6.50083 27.0753 6.7751 27.1965 7.08756C27.3177 7.40002 27.353 7.73926 27.2986 8.06996L24.4636 25.2662C24.1886 26.925 22.3686 27.8762 20.8473 27.05C19.5748 26.3587 17.6848 25.2937 15.9848 24.1825C15.1348 23.6262 12.5311 21.845 12.8511 20.5775C13.1261 19.4937 17.5011 15.4212 20.0011 13C20.9823 12.0487 20.5348 11.5 19.3761 12.375C16.4986 14.5475 11.8786 17.8512 10.3511 18.7812C9.00356 19.6012 8.30106 19.7412 7.46106 19.6012C5.92856 19.3462 4.50731 18.9512 3.34731 18.47C1.77981 17.82 1.85606 15.665 3.34606 15.0375L24.7211 6.03746Z" fill="black"/>
</svg>
