<svg width="18" height="16" viewBox="0 0 18 16" fill="none" xmlns="http://www.w3.org/2000/svg">
<g clip-path="url(#clip0_555_39)">
<path d="M12.4093 14V12.6667C12.4093 11.9594 12.1017 11.2811 11.5541 10.781C11.0065 10.281 10.2638 10 9.48946 10H3.64981C2.87542 10 2.13275 10.281 1.58518 10.781C1.0376 11.2811 0.72998 11.9594 0.72998 12.6667V14M16.789 14V12.6667C16.7885 12.0758 16.5732 11.5018 16.1768 11.0349C15.7805 10.5679 15.2255 10.2344 14.5991 10.0867M11.6793 2.08667C12.3074 2.23353 12.8641 2.56713 13.2616 3.03487C13.6591 3.50261 13.8749 4.07789 13.8749 4.67C13.8749 5.26211 13.6591 5.83739 13.2616 6.30513C12.8641 6.77287 12.3074 7.10647 11.6793 7.25333M9.48946 4.66667C9.48946 6.13943 8.18221 7.33333 6.56963 7.33333C4.95706 7.33333 3.64981 6.13943 3.64981 4.66667C3.64981 3.19391 4.95706 2 6.56963 2C8.18221 2 9.48946 3.19391 9.48946 4.66667Z" stroke="#1E1E1E" stroke-width="2" stroke-linecap="round" stroke-linejoin="round"/>
</g>
<defs>
<clipPath id="clip0_555_39">
<rect width="17.5189" height="16" fill="white"/>
</clipPath>
</defs>
</svg>
